# xmcd
#
# Track frame offsets: 
#        150
#        13088
#        23270
#        40565
#        55854
#        66468
#        76584
#        88219
#        100624
#        112672
#        126429
#        139599
#        152753
#        165354
#        178317
#        192521
#        209103
#        225277
#        238935
#        250688
#        263985
#        279256
#        290916
#        309032
#
# Disc length: 4299 seconds
#
# Revision: 2
# Processed by: cddbd v1.5.2PL0 Copyright (c) Steve Scherf et al.
# Submitted via: ExactAudioCopyFreeDBPlugin 1.0
#
DISCID=4010c918
DTITLE=Various Artist - Out Of Left Field - Where Soul Meets Country
DYEAR=2016
DGENRE=Country
TTITLE0=Daaron Lee - Who's Making Love [1969]
TTITLE1=Jeannie C Riley - He Made A Woman Out Of Me [1970]
TTITLE2=Hank Williams Jr - Out Of Left Field [1993]
TTITLE3=Waylon Jennings And Willie Nelson - (Sittin' On The) Dock Of T
TTITLE3=he Bay [1982]
TTITLE4=Anita Carter - I've Been Loving You Too Long (To Stop Now) [19
TTITLE4=66]
TTITLE5=Bobby Bare - Find Out What's Happening [1968]
TTITLE6=Skeeter Davis - Only The Strong Survive [1969]
TTITLE7=Jerry Reed - It Tears Me Up [1982]
TTITLE8=Linda Martell - Color Him Father [1969]
TTITLE9=Sonny James - When Something Is Wrong With My Baby [1976]
TTITLE10=Don Gibson - Starting All Over Again [1978]
TTITLE11=Johnny Paycheck - She's All I Got [1971]
TTITLE12=O.B. McClinton - You Don't Miss Your Water [1973]
TTITLE13=Freddy Fender - You'll Lose A Good Thing [1976]
TTITLE14=Archie Campbell And Lorene Mann - Warm And Tender Love [1968]
TTITLE15=Ronnie Milsap - Any Day Now [1982]
TTITLE16=Tanya Tucker - Baby I'm Yours [1982]
TTITLE17=Mel Street - I've Found Someone Of My Own [1972]
TTITLE18=Loretta Lynn And Conway Twitty - Pickin' Wild Mountain Berrie
TTITLE18=s [1970]
TTITLE19=The Kendalls - The Dark End Of The Street [1983]
TTITLE20=Razzy Bailey - Scratch My Back (And Whisper In My Ear) [1981]
TTITLE21=Billie Jo Spears - Do Right Woman, Do Right Man [1976]
TTITLE22=David Allan Coe - He Will Break Your Heart [1983]
TTITLE23=Johnny Cash - Look At Them Beans (Papa's Dream) [1975]
EXTD=
EXTT0=
EXTT1=
EXTT2=
EXTT3=
EXTT4=
EXTT5=
EXTT6=
EXTT7=
EXTT8=
EXTT9=
EXTT10=
EXTT11=
EXTT12=
EXTT13=
EXTT14=
EXTT15=
EXTT16=
EXTT17=
EXTT18=
EXTT19=
EXTT20=
EXTT21=
EXTT22=
EXTT23=
PLAYORDER=
